<?xml version="1.0" encoding="UTF-8" standalone="no"?><!DOCTYPE svg PUBLIC "-//W3C//DTD SVG 1.1//EN" "http://www.w3.org/Graphics/SVG/1.1/DTD/svg11.dtd"><svg width="100%" height="100%" viewBox="0 0 130 110" version="1.1" xmlns="http://www.w3.org/2000/svg" xmlns:xlink="http://www.w3.org/1999/xlink" xml:space="preserve" style="fill-rule:evenodd;clip-rule:evenodd;stroke-linejoin:round;stroke-miterlimit:1.41421;"><g><path d="M2.628,44.105l16.372,-9.323l0.339,0.385c2.99,3.392 7.492,7.296 13.761,11.932c1.075,0.797 2.224,1.629 3.415,2.472l1.024,0.723l-13.732,4.485l-21.179,-10.674Z" style="fill:#da1f3d;fill-rule:nonzero;"/><path d="M48.527,28.006c-1.343,-0.566 -2.655,-1.105 -3.902,-1.603c-7.24,-2.886 -12.929,-4.658 -17.39,-5.416l-0.504,-0.085l-0.698,-18.828l20.228,12.384l3.421,14.035l-1.155,-0.487Z" style="fill:#da1f3d;fill-rule:nonzero;"/><path d="M52.091,89.759l16.954,-16.953l0,23.998c-6.274,-0.959 -12.052,-3.439 -16.954,-7.045Zm-15.318,-25.226l23.999,0l-16.953,16.953c-3.607,-4.901 -6.087,-10.68 -7.046,-16.953Zm38.121,-56.114c-9.385,0 -18.175,2.593 -25.7,7.09l2.94,12.064c6.384,-4.682 14.253,-7.454 22.76,-7.454c8.527,0 16.41,2.787 22.803,7.489l-25.226,25.225l-34.331,0l-13.478,4.402c-0.013,0.483 -0.032,0.963 -0.032,1.448c0,27.716 22.548,50.265 50.264,50.265c10.744,0 20.704,-3.4 28.882,-9.164c-2.225,-2.684 -4.572,-5.836 -6.984,-9.378c-4.702,3.255 -10.157,5.498 -16.047,6.398l0,-35.697l25.225,-25.226c4.703,6.392 7.489,14.276 7.489,22.802c0,4.245 -0.691,8.33 -1.962,12.152c2.198,5.385 4.063,10.57 5.495,15.262c5.157,-7.89 8.167,-17.304 8.167,-27.414c0,-27.715 -22.549,-50.264 -50.265,-50.264Z" style="fill:#da1f3d;fill-rule:nonzero;"/><path d="M83.344,73.894c1.79,0.661 5.421,1.857 5.421,1.857l9.791,-16.887c0,0 -4.345,-3.628 -6.589,-5.302l-8.623,8.622l0,11.71Z" style="fill:#da1f3d;fill-rule:nonzero;"/><path d="M51.785,32.004l0.003,-0.007c-10.198,-4.527 -19.943,-8.116 -26.494,-8.957l-5.234,9.397c3.919,4.823 11.399,10.769 19.949,16.691l0,0.002l0.17,0.117c0.109,0.076 0.217,0.151 0.326,0.226l0.001,-0.002c0.37,0.254 0.739,0.508 1.111,0.762l29.777,0l5.745,-5.745c-7.649,-4.097 -16.661,-8.625 -25.354,-12.484Z" style="fill:#da1f3d;fill-rule:nonzero;"/><path d="M108.305,69.394c4.051,9.593 7.071,18.625 8.537,25.53c1.657,7.801 0.986,11.242 -0.197,11.86c-0.124,0.066 -0.261,0.104 -0.42,0.119l-0.181,0.009c-3.631,0 -12.96,-9.776 -24.198,-28.81l16.459,-8.708Z" style="fill:#da1f3d;fill-rule:nonzero;"/></g></svg>